<svg width="15" height="15" viewBox="0 0 15 15" fill="none" xmlns="http://www.w3.org/2000/svg">
<path d="M0.689453 7.37436C0.689453 6.0157 1.0891 4.68756 1.83787 3.55788C2.58663 2.4282 3.65088 1.54773 4.89603 1.02779C6.14118 0.507859 7.5113 0.371821 8.83314 0.636881C10.155 0.901941 11.3692 1.55619 12.3222 2.51691C13.2752 3.47762 13.9242 4.70164 14.1871 6.03419C14.45 7.36674 14.3151 8.74796 13.7993 10.0032C13.2836 11.2584 12.4102 12.3313 11.2896 13.0861C10.169 13.8409 8.85148 14.2438 7.50374 14.2438C5.69648 14.2438 3.96324 13.5201 2.68531 12.2318C1.40739 10.9435 0.689453 9.19625 0.689453 7.37436Z" fill="#E4E753"/>
</svg>
