<svg width="30" height="30" viewBox="0 0 30 30" fill="none" xmlns="http://www.w3.org/2000/svg">
<mask id="mask0_608_6947" style="mask-type:alpha" maskUnits="userSpaceOnUse" x="0" y="0" width="30" height="30">
<rect x="0.478516" y="0.535156" width="28.8848" height="29.1721" fill="#D9D9D9"/>
</mask>
<g mask="url(#mask0_608_6947)">
<path d="M41.5941 27.5577C41.1016 26.7425 40.6044 25.928 40.1026 25.1143C37.8631 21.4956 35.7474 17.7889 33.333 14.2906C30.438 10.1056 26.7915 6.64779 22.2105 4.31559C21.2395 3.83785 20.1844 3.55499 19.1047 3.48299C18.015 3.4054 16.9045 3.70764 16.5039 4.99649C16.1437 6.16143 16.6787 7.35185 17.9143 8.07791C18.6554 8.51216 19.4568 8.84566 20.1967 9.28223C28.151 13.9895 32.9011 18.5126 38.0553 25.3691C39.4122 25.7628 40.6358 26.5196 41.5941 27.5577Z" fill="#E4E753"/>
<path d="M34.21 24.7047C30.9143 21.8004 27.7055 18.785 24.2674 16.0603C20.8097 13.3205 16.9767 11.1249 12.6667 9.95648C10.1573 9.27789 7.60274 8.85291 5.05052 9.84068C4.02106 10.2494 3.07035 10.8296 3.24057 12.0791C3.4108 13.3286 4.61048 13.4525 5.5693 13.5196C14.1964 14.1253 21.9804 17.136 29.1727 21.797C30.8541 22.8843 32.4579 24.091 34.078 25.271C34.2633 25.227 34.452 25.1887 34.6431 25.1552C34.51 24.9945 34.3653 24.844 34.21 24.7047Z" fill="#E4E753"/>
<path d="M17.6534 20.1708C15.3374 19.6254 12.9624 19.3718 10.6788 20.2322C9.71339 20.5932 8.85161 21.1861 8.16943 21.9587C7.07281 23.2592 7.80813 24.9151 9.49186 25.1757C10.1198 25.2557 10.7558 25.2483 11.3817 25.1536C16.9281 24.4493 22.5572 24.7855 27.9804 26.1449C28.9392 26.3846 29.8911 26.6509 30.8418 26.9196C30.9842 26.798 31.129 26.6822 31.2795 26.5722C27.076 23.6598 22.6235 21.345 17.6534 20.1708Z" fill="#E4E753"/>
</g>
</svg>
