<svg width="54" height="64" viewBox="0 0 54 64" fill="none" xmlns="http://www.w3.org/2000/svg">
<path d="M28.346 0.594727C28.4447 1.03864 28.6255 1.48255 28.642 1.92646C28.6584 5.47775 28.6584 9.0126 28.6584 12.5639C28.6584 12.8105 28.6584 13.0571 28.6584 13.3531C21.7038 13.3531 14.7985 13.3531 7.81104 13.3531C7.7946 13.2051 7.77816 13.0242 7.77816 12.8598C7.77816 9.11124 7.77816 5.36266 7.76172 1.61408C7.76172 1.17017 7.86037 0.808463 8.28784 0.611169C8.37004 0.611169 8.45225 0.611169 8.53445 0.611169C9.58669 1.44967 10.6389 2.27173 11.6912 3.12667C12.7434 2.27173 13.7792 1.44967 14.815 0.611169C14.8972 0.611169 14.9794 0.611169 15.0616 0.611169C16.1138 1.44967 17.1661 2.27173 18.2183 3.12667C19.2705 2.27173 20.3063 1.44967 21.3257 0.611169C21.4079 0.611169 21.4901 0.611169 21.5723 0.611169C22.6245 1.44967 23.6768 2.27173 24.7454 3.12667C25.7977 2.28817 26.817 1.44967 27.8528 0.611169C28.0172 0.594728 28.1816 0.594727 28.346 0.594727ZM18.2018 7.84527C20.2899 7.84527 22.3779 7.84527 24.4659 7.84527C24.6468 7.84527 24.8934 7.91104 25.0085 7.81239C25.2387 7.63154 25.5346 7.38492 25.5675 7.1383C25.5839 6.95745 25.2387 6.69439 25.0085 6.52998C24.8934 6.44778 24.6961 6.4971 24.5317 6.4971C20.3063 6.4971 16.0974 6.4971 11.872 6.4971C11.6912 6.4971 11.461 6.44778 11.3294 6.54642C11.1322 6.69439 10.8691 6.95745 10.8691 7.15475C10.8691 7.36848 11.1157 7.63154 11.3294 7.76307C11.4774 7.86172 11.724 7.81239 11.9213 7.81239C14.0094 7.84528 16.1138 7.84527 18.2018 7.84527ZM15.3575 10.8211C16.6235 10.8211 17.9059 10.8211 19.1719 10.8211C19.6487 10.8211 20.0104 10.6896 19.9939 10.147C19.9939 9.63736 19.6158 9.50583 19.1883 9.50583C16.6728 9.50583 14.1409 9.50583 11.6254 9.50583C11.1979 9.50583 10.8362 9.6538 10.8362 10.147C10.8362 10.6896 11.1979 10.8211 11.6747 10.8047C12.9078 10.8211 14.1409 10.8211 15.3575 10.8211Z" fill="#E4E753"/>
<path d="M6.41022 8.42073C6.41022 9.94976 6.41022 11.3308 6.41022 12.7776C6.0814 12.7776 5.75257 12.6954 5.48952 12.7941C5.22646 12.8927 4.93052 13.1558 4.86475 13.4024C4.78255 13.797 5.07849 14.0436 5.48952 14.06C5.67037 14.0765 5.85122 14.06 6.04852 14.06C14.154 14.06 22.2595 14.06 30.3485 14.06C30.8418 14.06 31.4501 14.2245 31.5487 13.4517C31.5981 12.9585 31.2857 12.7941 30.365 12.7612C30.2663 12.7612 30.1677 12.7448 30.0033 12.7448C30.0033 11.3637 30.0033 9.98264 30.0033 8.60158C34.0807 7.86173 36.4646 10.5745 36.4646 13.4517C36.4646 28.5283 36.4646 43.6048 36.4646 58.6813C36.4646 61.4599 34.3437 63.6137 31.5652 63.6137C22.687 63.6301 13.8087 63.6301 4.91408 63.6137C2.15196 63.6137 0.0639378 61.5257 0.0146144 58.7471C-0.0182679 57.2345 0.0146144 55.7055 0.0146144 54.1929C0.0146144 40.6947 0.0146144 27.1965 0.0146144 13.6983C0.0146144 11.1664 1.34635 9.25923 3.63167 8.70023C4.50305 8.47006 5.44019 8.50294 6.41022 8.42073ZM18.1985 34.8252C22.1115 34.8252 26.0245 34.8252 29.9375 34.8252C31.4665 34.8252 32.2064 34.0854 32.2064 32.5563C32.2064 28.1337 32.2064 23.6946 32.2064 19.2719C32.2064 17.7593 31.4501 17.0195 29.9375 17.0195C22.128 17.0195 14.3184 17.0195 6.50887 17.0195C4.94696 17.0195 4.20711 17.7593 4.20711 19.3212C4.20711 23.7274 4.20711 28.1337 4.20711 32.5399C4.20711 34.0854 4.94696 34.8252 6.50887 34.8252C10.4054 34.8252 14.302 34.8252 18.1985 34.8252ZM28.0139 53.2722C27.3727 53.2722 26.7479 53.2557 26.1067 53.2722C25.2189 53.3051 24.5612 53.8641 24.479 54.7355C24.4133 55.4917 24.4133 56.248 24.479 57.0043C24.5448 57.8428 25.1202 58.4347 25.9587 58.4676C27.3234 58.5334 28.7044 58.5334 30.069 58.4676C30.9404 58.4183 31.4994 57.7442 31.5323 56.8564C31.5487 56.248 31.5487 55.6233 31.5323 55.015C31.5159 53.9792 30.8253 53.3051 29.7895 53.2722C29.1977 53.2722 28.6058 53.2722 28.0139 53.2722ZM8.35028 51.1842C8.99148 51.1842 9.61624 51.2006 10.2574 51.1842C11.2275 51.1513 11.918 50.4936 11.9509 49.5236C11.9838 48.8824 11.9838 48.2576 11.9509 47.6164C11.9016 46.6793 11.2932 46.0216 10.3561 45.9888C9.04081 45.9394 7.74195 45.9394 6.42666 45.9888C5.48952 46.0216 4.89764 46.6957 4.84831 47.6329C4.81543 48.2248 4.83187 48.8166 4.84831 49.4085C4.88119 50.4936 5.55528 51.1677 6.62396 51.1842C7.1994 51.1842 7.77484 51.1842 8.35028 51.1842ZM27.9975 51.1842C28.6387 51.1842 29.2634 51.2006 29.9046 51.1842C30.8418 51.1513 31.5159 50.4608 31.5323 49.5236C31.5487 48.9153 31.5487 48.2905 31.5323 47.6822C31.5159 46.6957 30.8911 46.0052 29.8882 45.9723C28.6222 45.923 27.3562 45.923 26.0738 45.9723C25.1038 46.0052 24.4955 46.6464 24.4297 47.6164C24.3968 48.2412 24.3968 48.8824 24.4297 49.5236C24.4955 50.543 25.1696 51.1677 26.1889 51.1842C26.8137 51.1842 27.4056 51.1842 27.9975 51.1842ZM8.41604 53.2722C7.80772 53.2722 7.18296 53.2557 6.57463 53.2722C5.58816 53.3051 4.89764 53.9463 4.86475 54.9163C4.83187 55.5739 4.83187 56.2316 4.86475 56.8892C4.91408 57.7606 5.48952 58.4347 6.37734 58.4676C7.72551 58.5334 9.07369 58.5334 10.4219 58.4676C11.3426 58.4183 11.918 57.7606 11.9673 56.8564C12.0002 56.2152 12.0002 55.5904 11.9673 54.9492C11.918 53.9463 11.2275 53.2886 10.2081 53.2722C9.5998 53.2722 9.00792 53.2722 8.41604 53.2722ZM8.36672 43.835C9.00792 43.835 9.63269 43.8679 10.2739 43.835C11.2768 43.7856 11.9016 43.1444 11.9509 42.158C11.9838 41.5496 11.9838 40.9249 11.9509 40.3166C11.9016 39.2972 11.2275 38.6396 10.2081 38.6231C9.00792 38.6067 7.79128 38.6067 6.59107 38.6231C5.57172 38.6396 4.89764 39.2972 4.84831 40.3001C4.83187 40.9084 4.83187 41.5332 4.84831 42.1415C4.88119 43.128 5.5224 43.7692 6.52531 43.8185C7.15007 43.8679 7.75839 43.835 8.36672 43.835ZM28.0139 38.6231C27.3727 38.6231 26.7479 38.6067 26.1067 38.6231C25.2353 38.656 24.5612 39.1986 24.479 40.0699C24.4133 40.8427 24.4133 41.6319 24.479 42.3881C24.5612 43.2102 25.1696 43.7692 26.0081 43.8021C27.3398 43.835 28.6715 43.8514 30.0033 43.8021C30.8911 43.7692 31.4994 43.0951 31.5323 42.1909C31.5487 41.5497 31.5487 40.9249 31.5323 40.2837C31.4994 39.3137 30.8253 38.6396 29.8553 38.6067C29.247 38.6067 28.6387 38.6231 28.0139 38.6231ZM18.2314 53.2722C17.6231 53.2722 16.9983 53.2557 16.39 53.2722C15.3706 53.3051 14.6966 53.9627 14.6801 54.9656C14.6637 55.574 14.6637 56.1987 14.6801 56.807C14.713 57.7277 15.2556 58.4183 16.1598 58.4511C17.5244 58.5169 18.9055 58.5169 20.2701 58.4511C21.125 58.4183 21.684 57.7771 21.7334 56.9057C21.7663 56.248 21.7663 55.5904 21.7498 54.9492C21.7005 53.9298 21.0428 53.2886 20.0235 53.2722C19.4152 53.2722 18.8233 53.2722 18.2314 53.2722ZM18.1492 51.1842C18.8068 51.1842 19.4645 51.2006 20.1221 51.1677C21.0264 51.1348 21.684 50.5265 21.7334 49.6387C21.7827 48.9317 21.7827 48.2083 21.7334 47.4849C21.684 46.63 21.0922 46.0052 20.2372 45.9723C18.8891 45.923 17.5409 45.923 16.1927 45.9723C15.2884 46.0052 14.713 46.6957 14.6801 47.6C14.6637 48.2083 14.6637 48.8331 14.6801 49.4414C14.713 50.4772 15.3871 51.1348 16.4393 51.1677C16.9983 51.1842 17.5738 51.1842 18.1492 51.1842ZM18.1985 43.8514V43.835C18.8726 43.835 19.5467 43.8679 20.2208 43.8185C21.0757 43.7692 21.6676 43.1609 21.7169 42.3224C21.7663 41.5825 21.7663 40.8427 21.7169 40.1193C21.6512 39.2972 21.01 38.6725 20.1715 38.656C18.8562 38.6231 17.5573 38.6231 16.242 38.656C15.3542 38.6725 14.713 39.3465 14.6637 40.2344C14.6308 40.8756 14.6472 41.5003 14.6637 42.1415C14.6801 43.1773 15.3049 43.8185 16.3571 43.8679C16.9654 43.8679 17.5738 43.8514 18.1985 43.8514Z" fill="#1B2127"/>
<path d="M41.4609 19.6829C43.6969 19.6829 45.8836 19.6829 48.1196 19.6829C48.1196 31.8329 48.1196 43.9336 48.1196 56.0836C45.8836 56.0836 43.7134 56.0836 41.4609 56.0836C41.4609 43.9665 41.4609 31.8494 41.4609 19.6829Z" fill="#E4E753"/>
<path d="M42.1193 19.6994C42.1193 31.8329 42.1193 43.9336 42.1193 56.0672C40.7053 56.0672 39.2749 56.0672 37.8281 56.0672C37.8281 43.95 37.8281 31.8494 37.8281 19.6994C39.2421 19.6994 40.656 19.6994 42.1193 19.6994Z" fill="#E4E753"/>
<path d="M49.4883 19.5843C50.2117 19.6665 50.9022 19.65 51.5434 19.8309C52.6614 20.1433 53.4013 21.1955 53.467 22.3628C53.4835 22.5272 53.4835 22.6917 53.4835 22.8561C53.4835 32.8852 53.4835 42.9143 53.4835 52.9434C53.4835 54.5875 52.6779 55.7384 51.2475 56.0507C50.6885 56.1658 50.113 56.133 49.5047 56.1658C49.4883 43.9665 49.4883 31.8494 49.4883 19.5843Z" fill="#E4E753"/>
</svg>
