<svg width="64" height="63" viewBox="0 0 64 63" fill="none" xmlns="http://www.w3.org/2000/svg">
<path d="M52.2485 37.4717C51.893 37.4717 51.5001 37.5716 51.1633 37.6914C49.1054 38.3904 47.7958 40.6473 48.1139 42.8642C48.4506 45.2409 50.2654 46.9785 52.4917 46.9984C56.1211 47.0184 59.7693 46.9984 63.3987 46.9984C63.511 46.9984 63.6233 46.9585 63.7355 46.9385C63.7355 43.7629 63.7355 40.6473 63.7355 37.4317C59.8441 37.4717 56.0463 37.4517 52.2485 37.4717Z" fill="#E4E753"/>
<path d="M34.9664 16.302C35.4078 16.1456 35.7573 15.9109 36.0147 15.5981C36.2906 15.2852 36.4745 14.9137 36.5849 14.4835C36.6952 14.0533 36.7504 13.545 36.7504 12.9974C36.7504 12.2544 36.64 11.6482 36.4377 11.1985C36.2354 10.7488 35.9595 10.3968 35.6285 10.1622C35.2975 9.92752 34.9113 9.77109 34.5067 9.69288C34.0837 9.61466 33.6791 9.57555 33.2561 9.57555H31.5273V16.5367H33.3481C33.9917 16.5562 34.5251 16.478 34.9664 16.302Z" fill="#1B2127"/>
<path d="M25.2889 20.8562C25.3647 20.6712 25.4974 20.5787 25.6491 20.5787H27.1661V18.5809H25.6491C25.4974 18.5809 25.3647 18.4884 25.2889 18.285C25.213 18.0815 25.1561 17.7485 25.1561 17.2676C25.1561 16.7866 25.213 16.4536 25.3078 16.2687C25.4026 16.0837 25.5354 15.9727 25.6871 15.9727H27.1661V8.24042C27.1661 7.74097 27.2988 7.371 27.5643 7.13052C27.8297 6.89005 28.171 6.77906 28.5882 6.77906H33.8216C34.7507 6.77906 35.6229 6.89005 36.4572 7.13052C37.2915 7.371 38.031 7.72247 38.6568 8.20342C39.2825 8.68438 39.7944 9.29482 40.1547 10.0163C40.5339 10.7377 40.7046 11.5886 40.7046 12.569C40.7046 13.5494 40.534 14.4188 40.1927 15.1773C39.8513 15.9357 39.3394 16.5646 38.6947 17.0641C38.05 17.5635 37.2347 17.952 36.3055 18.211C35.3575 18.47 34.2956 18.5994 33.101 18.5994H31.1859V20.5972H36.0401C36.1918 20.5972 36.3245 20.6897 36.4383 20.8747C36.5331 21.0412 36.571 21.3372 36.59 21.7626H52.3091C53.5037 10.8117 44.7055 0.341669 32.5511 0.0087006C26.9954 -0.139285 22.1223 1.59955 18.0645 5.2992C13.1914 9.73878 11.1246 15.2883 11.5607 21.7626H25.1751C25.1751 21.3187 25.213 21.0227 25.2889 20.8562Z" fill="#1B2127"/>
<path d="M52.4546 33.3749C55.9588 33.3184 59.4439 33.3561 62.9481 33.3561C63.1943 33.3561 63.4405 33.3561 63.7057 33.3561C63.7057 28.6294 63.7815 24.0346 63.6868 19.4209C63.5921 15.504 59.8606 12.5475 55.8641 13.1313C56.8111 15.9183 57.1142 18.7807 56.8679 21.6807H52.3221H36.6198H25.1983H11.5985H7.0337C6.80641 18.743 7.1284 15.8995 8.03757 13.1125C3.79475 12.6228 0.195918 15.7677 0.195918 19.9106C0.176977 31.8872 0.195918 43.8639 0.195918 55.8595C0.195918 56.4432 0.271697 57.027 0.423226 57.5919C1.21876 60.6991 3.90839 62.6764 7.29886 62.6764C23.7209 62.6764 40.1429 62.6764 56.5649 62.6764C56.7922 62.6764 57.0384 62.6764 57.2657 62.6576C60.3531 62.5069 63.1564 60.1718 63.5352 57.14C63.7625 55.2757 63.5731 53.3549 63.5731 51.3965C63.3837 51.3965 63.1185 51.3965 62.8723 51.3965C59.2545 51.3965 55.6368 51.4341 52.019 51.3776C46.2041 51.2835 41.9423 45.4834 43.5712 39.947C44.6888 36.1619 48.3444 33.4314 52.4546 33.3749ZM34.29 44.6172C32.7369 44.6549 31.1648 44.6549 29.6116 44.6172C28.3236 44.5984 27.3955 43.5626 27.3955 42.2633C27.3955 41.0957 28.3425 40.173 29.5737 40.1353C30.3692 40.1165 31.1837 40.1353 31.9792 40.1353C32.7369 40.1353 33.4945 40.1165 34.2522 40.1353C35.5023 40.173 36.4493 41.0957 36.4683 42.2444C36.4872 43.5438 35.578 44.5795 34.29 44.6172Z" fill="#E4E753"/>
</svg>
