<svg width="27" height="36" viewBox="0 0 27 36" fill="none" xmlns="http://www.w3.org/2000/svg">
<path d="M8.63537 35.3462C7.55213 33.2916 6.47591 31.2327 5.38211 29.183C3.98304 26.5593 2.60084 23.9307 1.68852 21.084C0.387925 17.0267 0.292965 13.037 2.05219 9.04867C3.46392 5.84184 5.5453 3.24415 8.70079 1.71776C13.0908 -0.405826 17.5215 -0.556356 21.7026 2.28049C24.8517 4.41884 26.5118 7.45123 26.395 11.3129C26.2543 15.9899 22.6149 19.3465 18.6294 20.0865C15.9142 20.5923 13.6633 19.9156 11.9674 17.6802C10.4804 15.7184 10.6837 12.0128 12.3494 10.2241C13.1442 9.36801 14.7065 8.99029 15.6146 9.43414C16.5895 9.91034 16.887 10.8719 16.5121 12.2682C16.3989 12.6902 16.2758 13.1221 16.2589 13.5533C16.2068 14.8982 17.1621 15.6635 18.4887 15.3421C20.0306 14.9685 20.8761 13.8965 21.2622 12.4201C21.9656 9.73941 20.1459 5.67935 15.9726 5.35226C11.2478 4.98298 7.78706 8.20599 6.45833 12.2597C5.14647 16.2621 5.83581 20.0303 7.82856 23.6408C9.23538 26.1872 10.6527 28.7272 12.0138 31.2967C12.713 32.617 13.2997 33.9971 13.9377 35.3498L8.63537 35.3462Z" fill="#E4E753"/>
</svg>
