<svg width="28" height="38" viewBox="0 0 28 38" fill="none" xmlns="http://www.w3.org/2000/svg">
<path d="M27.3654 24.2659C25.2269 23.7335 23.2595 23.2118 21.2758 22.7584C19.2001 22.2844 17.0855 23.5332 16.4005 25.5613C15.9817 26.7993 15.6624 28.0872 15.1018 29.2592C12.8368 34.0003 9.02306 36.7546 3.8934 37.6961C2.98327 37.8638 2.04391 37.8855 1.11646 37.9482C0.656524 37.9796 0.392465 37.7567 0.36541 37.3952C0.338355 37.0338 0.569947 36.8617 1.01473 36.7178C1.32208 36.6171 1.69761 36.4028 1.82422 36.1355C2.20841 35.325 2.60017 34.4884 2.78306 33.6183C3.27979 31.2678 3.64883 28.8902 4.11093 26.532C4.34043 25.394 4.62942 24.2688 4.97669 23.161C5.42581 21.7141 6.07405 20.3678 7.35755 19.4328C5.5178 17.9837 4.90743 15.8994 4.44316 13.7836C3.93236 11.4504 3.58714 9.08146 3.12071 6.73739C2.90427 5.66817 2.60341 4.61519 2.29174 3.56978C2.17246 3.19625 1.97965 2.85037 1.72466 2.5525C1.52504 2.34063 1.27014 2.18881 0.98876 2.11421C0.555877 1.98975 0.348093 1.81876 0.368655 1.45839C0.389217 1.09801 0.656522 0.849106 1.10888 0.892395C2.32853 1.01144 3.57523 1.04174 4.75592 1.33069C10.8628 2.82413 14.644 6.71359 16.249 12.7718C16.816 14.9124 18.5432 16.3236 20.5843 16.1688C21.502 16.0996 22.4046 15.8085 23.3082 15.5909C24.4867 15.3074 25.6598 14.9968 26.8362 14.6992C26.9119 14.6797 26.9899 14.67 27.1608 14.6397C27.0526 14.8561 26.979 15.0206 26.899 15.1808C26.4087 16.1493 26.017 17.1504 25.8947 18.2413C25.7291 19.7163 26.0949 21.082 26.7269 22.3958C26.9141 22.7854 27.1316 23.161 27.2918 23.5614C27.3654 23.7508 27.3383 23.9824 27.3654 24.2659Z" fill="#E4E753"/>
</svg>
