<svg width="17" height="17" viewBox="0 0 17 17" fill="none" xmlns="http://www.w3.org/2000/svg">
<path d="M8.10232 3.31798L8.50003 3.83985L8.89771 3.31795C10.3754 1.37868 12.2774 0.976031 13.7763 1.51933C15.2895 2.06783 16.5 3.61754 16.5 5.82158C16.5 8.12853 15.2613 10.1525 13.5657 11.9338C12.1553 13.4154 10.4814 14.6769 9.04176 15.7619C8.85701 15.9011 8.67613 16.0375 8.50015 16.171C8.32215 16.0358 8.13912 15.8978 7.95217 15.7567C6.51383 14.6719 4.84275 13.4114 3.43433 11.9319C1.73864 10.1506 0.5 8.12721 0.5 5.82158C0.5 3.61751 1.71044 2.06781 3.22352 1.51933C4.72228 0.976038 6.62438 1.37866 8.10232 3.31798Z" stroke="#C5C900"/>
</svg>
