<svg width="17" height="17" viewBox="0 0 17 17" fill="none" xmlns="http://www.w3.org/2000/svg">
<path d="M8.10232 3.3181L8.50003 3.83998L8.89771 3.31807C10.3754 1.3788 12.2774 0.976153 13.7763 1.51945C15.2895 2.06795 16.5 3.61766 16.5 5.8217C16.5 8.12865 15.2613 10.1526 13.5657 11.9339C12.1553 13.4155 10.4814 14.677 9.04176 15.762C8.85702 15.9013 8.67613 16.0376 8.50015 16.1711C8.32215 16.0359 8.13913 15.8979 7.95218 15.7569C6.51383 14.672 4.84275 13.4116 3.43433 11.932C1.73864 10.1507 0.5 8.12733 0.5 5.8217C0.5 3.61764 1.71044 2.06794 3.22352 1.51945C4.72228 0.97616 6.62438 1.37878 8.10232 3.3181Z" fill="#C5C900" stroke="#C5C900"/>
</svg>
