<svg width="161" height="37" viewBox="0 0 161 37" fill="none" xmlns="http://www.w3.org/2000/svg">
<path d="M8.27452 19.3767C8.30302 19.2057 8.3743 18.8065 8.48833 18.1793C8.63088 17.5522 8.75917 17.2386 8.8732 17.2386C8.95873 17.2386 9.01575 17.3526 9.04426 17.5807L9.64295 20.0182C10.1276 21.8428 10.7405 24.1377 11.4818 26.9031C12.223 29.6685 12.8074 31.9207 13.2351 33.6597C13.3491 34.1159 13.5487 34.4722 13.8338 34.7288C14.1189 34.9854 14.4467 35.1137 14.8173 35.1137C14.9028 35.1137 15.0882 35.0852 15.3732 35.0281C15.7439 34.9426 16.143 34.8143 16.5706 34.6433C17.0268 34.4722 17.3261 34.3582 17.4687 34.3012C17.6682 34.1586 17.768 34.0303 17.768 33.9163C17.711 33.2036 17.6397 32.7047 17.5542 32.4196C16.8415 29.7112 15.6298 25.2068 13.9193 18.9063C12.2088 12.6058 11.2252 9.02798 10.9686 8.17271C10.9401 8.11569 10.8688 8.05867 10.7548 8.00165C10.6693 7.91613 10.5837 7.87336 10.4982 7.87336C8.78768 7.87336 7.7471 7.91613 7.37648 8.00165C7.26245 8.03016 7.13416 8.11569 6.99161 8.25823C6.84907 8.40078 6.74929 8.54332 6.69227 8.68587C6.4642 9.37008 4.63962 16.4831 1.21855 30.0248L0.406045 33.1466C0.377536 33.2321 0.363281 33.3461 0.363281 33.4887C0.363281 33.8023 0.534335 34.0873 0.876442 34.3439C1.33259 34.686 1.94553 34.8571 2.71527 34.8571C3.34247 34.8856 3.75585 34.8856 3.95541 34.8571C4.15497 34.8001 4.29752 34.686 4.38304 34.515C4.46857 34.3154 4.58261 33.9163 4.72515 33.3176L8.27452 19.3767Z" fill="#1B2127"/>
<path d="M27.0186 16.5116C26.9046 16.5116 25.5504 14.2736 22.9561 9.79772L22.0153 8.12994C21.7587 7.73082 21.5021 7.53125 21.2455 7.53125C21.16 7.53125 21.0032 7.58827 20.7751 7.70231L18.808 8.98521C18.5514 9.15627 18.3519 9.31307 18.2093 9.45561C18.0668 9.56965 17.9955 9.68368 17.9955 9.79772C17.9955 9.96877 18.1238 10.2681 18.3804 10.6957L19.7916 13.0477C22.5855 17.7802 24.2675 20.6026 24.8377 21.5149L20.8179 33.061C20.7894 33.1466 20.7751 33.2748 20.7751 33.4459C20.7751 33.9876 20.9462 34.3012 21.2883 34.3867C21.6304 34.4722 22.3004 34.6148 23.2982 34.8143L24.41 35.0281C24.6666 35.0281 24.8377 34.9569 24.9232 34.8143C25.2083 34.4152 25.4078 34.0018 25.5219 33.5742C26.0065 32.2058 27.6458 27.9152 30.4397 20.7024C33.2335 13.4611 34.7445 9.5839 34.9726 9.07074C35.0296 8.9567 35.0581 8.87118 35.0581 8.81416C35.0581 8.6431 34.9298 8.54332 34.6732 8.51481L31.5515 7.8306C31.466 7.80209 31.352 7.78783 31.2094 7.78783C30.8103 7.78783 30.4967 8.01591 30.2686 8.47205C29.955 9.21328 29.5559 10.2396 29.0712 11.551C28.9002 11.9787 28.5296 12.9194 27.9594 14.3734C27.4177 15.7989 27.1041 16.5116 27.0186 16.5116Z" fill="#1B2127"/>
<path d="M41.6323 34.6005C41.8319 34.6005 41.9459 34.4009 41.9744 34.0018C42.0315 33.5742 42.0457 33.1466 42.0172 32.7189C42.0172 32.2913 42.0172 31.9919 42.0172 31.8209L42.1455 22.6267C42.1455 22.2561 42.3165 22.0708 42.6586 22.0708C43.6565 22.0993 45.1532 22.1136 47.1488 22.1136C47.3484 22.1421 47.4767 22.1991 47.5337 22.2846C47.6192 22.3702 47.662 22.4985 47.662 22.6695C47.6335 23.4678 47.6192 25.4919 47.6192 28.7419L47.5764 34.0873C47.5764 34.4295 47.6477 34.7145 47.7903 34.9426C47.9613 35.1707 48.1894 35.2847 48.4745 35.2847C49.6148 35.2847 50.6269 35.242 51.5107 35.1564C51.9098 35.1279 52.1664 35.0424 52.2804 34.8999C52.3945 34.7573 52.48 34.4722 52.537 34.0446L52.6225 26.6037C52.6795 15.5423 52.7366 9.51263 52.7936 8.51481V8.38652C52.7936 7.9874 52.5798 7.81634 52.1521 7.87336C51.696 7.90187 50.9405 7.91613 49.8857 7.91613C49.5436 7.94463 49.0447 7.95889 48.389 7.95889C48.1609 7.95889 47.9898 8.00165 47.8758 8.08718C47.7903 8.17271 47.7475 8.32951 47.7475 8.55758L47.7047 12.7484C47.6762 13.6322 47.662 14.5302 47.662 15.4425C47.662 16.3548 47.6477 17.0818 47.6192 17.6234C47.4482 17.6804 47.3484 17.709 47.3199 17.709C47.0063 17.7375 46.5644 17.7517 45.9942 17.7517H44.8824C44.6543 17.7517 44.3549 17.7517 43.9843 17.7517C43.6137 17.7232 43.1576 17.7232 42.6159 17.7517H42.5304C42.3878 17.7517 42.288 17.709 42.231 17.6234C42.174 17.5094 42.1597 17.3811 42.1883 17.2386L42.231 13.732C42.231 11.3087 42.2025 9.46986 42.1455 8.21547C42.1455 8.18696 42.1027 8.1442 42.0172 8.08718C41.9317 8.00165 41.8461 7.94463 41.7606 7.91613L39.0665 7.87336C38.2398 7.87336 37.7979 7.90187 37.7409 7.95889C37.6553 8.04442 37.6126 8.15845 37.6126 8.301C37.6126 8.44354 37.6126 8.52907 37.6126 8.55758V33.2748C37.6126 33.3889 37.6126 33.5884 37.6126 33.8735C37.6411 34.1301 37.6981 34.3154 37.7836 34.4295C37.8977 34.515 38.0972 34.572 38.3823 34.6005C38.6104 34.629 39.0095 34.6433 39.5797 34.6433L41.6323 34.6005Z" fill="#1B2127"/>
<path d="M57.8878 25.5347L55.8351 33.5314C55.8066 33.5884 55.7924 33.6882 55.7924 33.8308C55.7924 34.2299 56.0489 34.4722 56.5621 34.5577C56.7332 34.5863 56.9612 34.6148 57.2463 34.6433C57.5314 34.6718 57.8593 34.7288 58.2299 34.8143C58.572 34.8713 58.8001 34.8999 58.9141 34.8999C59.2562 34.8999 59.527 34.8143 59.7266 34.6433C59.9547 34.4437 60.1542 34.1301 60.3253 33.7025C60.3823 33.5314 60.5249 32.9898 60.7529 32.0775C60.981 31.1367 61.1521 30.5237 61.2661 30.2386C61.3231 30.1246 61.4086 30.0248 61.5227 29.9393C61.6367 29.8253 61.7507 29.7682 61.8648 29.7682L66.6115 29.7255C66.9536 29.7255 67.1674 29.8823 67.253 30.1959L68.1938 34.5577C68.2508 34.8428 68.3363 35.0424 68.4503 35.1564C68.5644 35.299 68.7212 35.3702 68.9207 35.3702C69.0063 35.3702 69.1631 35.3417 69.3911 35.2847C69.9898 35.1422 70.5743 34.9711 71.1444 34.7716C71.5436 34.629 71.8286 34.4865 71.9997 34.3439C72.1708 34.1729 72.2563 33.9448 72.2563 33.6597C72.2563 33.4602 72.2135 33.1893 72.128 32.8472L70.4175 25.2353C70.1324 24.0094 69.4767 21.1015 68.4503 16.5116C67.424 11.9216 66.8111 9.29881 66.6115 8.64311C66.5545 8.41503 65.8418 8.31525 64.4733 8.34376C63.1334 8.34376 62.4207 8.34376 62.3352 8.34376L57.8878 25.5347ZM64.2168 17.3241C64.3308 16.982 64.4163 16.8109 64.4733 16.8109C64.6729 16.8109 64.9152 17.5236 65.2003 18.9491L65.5852 21.2156C65.9273 23.3252 66.1269 24.4941 66.1839 24.7222C66.2124 24.8362 66.2266 24.993 66.2266 25.1926C66.2266 25.3636 66.1696 25.4776 66.0556 25.5347C65.9701 25.5917 65.7848 25.6202 65.4997 25.6202C64.4163 25.6772 63.5325 25.7057 62.8483 25.7057C62.5347 25.7057 62.4207 25.5347 62.5062 25.1926C62.7058 24.3658 62.9909 23.0686 63.3615 21.3011C63.8176 19.0774 64.1027 17.7517 64.2168 17.3241Z" fill="#1B2127"/>
<path d="M79.3149 16.426C79.2579 15.3427 79.2294 12.6486 79.2294 8.34376V8.21547C79.2294 8.01591 79.1866 7.88762 79.1011 7.8306C79.0156 7.74507 78.8588 7.70231 78.6307 7.70231C77.3193 7.75933 76.236 7.78783 75.3807 7.78783C75.1241 7.78783 74.9531 7.84485 74.8675 7.95889C74.8105 8.07292 74.782 8.27249 74.782 8.55758V34.4722C74.782 34.7003 74.8248 34.8428 74.9103 34.8999C75.0813 34.9854 75.5375 35.0281 76.2787 35.0281C77.2765 35.0281 78.032 34.9996 78.5452 34.9426C78.9728 34.8856 79.1866 34.6718 79.1866 34.3012L79.3149 21.7715C79.3149 21.0017 79.6143 20.6169 80.213 20.6169C80.4695 20.6169 80.7974 20.6739 81.1965 20.7879C81.7952 20.9305 82.3226 21.2441 82.7788 21.7287C83.2349 22.1849 83.5057 22.755 83.5913 23.4393C83.6483 24.2375 83.6768 26.4755 83.6768 30.1531C83.7053 31.0369 83.7196 32.0632 83.7196 33.2321C83.7481 34.0018 83.7766 34.4722 83.8051 34.6433C83.8621 34.8143 83.9334 34.9141 84.0189 34.9426C84.1329 34.9426 84.8029 34.9426 86.0288 34.9426C86.9126 34.9426 87.4542 34.9284 87.6538 34.8999C87.7108 34.8999 87.7678 34.8571 87.8248 34.7716C87.8819 34.6575 87.9104 34.5577 87.9104 34.4722C87.9389 34.2441 87.9531 32.6762 87.9531 29.7682V24.4228C88.0387 23.1114 87.8391 21.9995 87.3545 21.0873C86.7843 20.0894 86.1001 19.3482 85.3018 18.8636C85.1308 18.7495 85.0452 18.6497 85.0452 18.5642C85.0452 18.4502 85.1308 18.3504 85.3018 18.2649C86.0145 17.8658 86.5562 17.2671 86.9268 16.4688C87.2974 15.6421 87.5113 14.9008 87.5683 14.2451C87.5968 13.846 87.611 12.6058 87.611 10.5247V9.02798C87.5825 8.48631 87.5113 8.17271 87.3972 8.08718C87.3117 7.97314 86.9981 7.91613 86.4564 7.91613H84.5748C83.8051 7.91613 83.406 7.93038 83.3774 7.95889C83.3489 7.9874 83.3347 8.35801 83.3347 9.07074C83.3632 9.78346 83.3774 10.3964 83.3774 10.9096C83.406 11.4512 83.4202 12.0784 83.4202 12.7912C83.4202 13.6749 83.2207 14.4162 82.8215 15.0149C82.4224 15.585 81.9377 15.9984 81.3676 16.255C80.8259 16.5116 80.327 16.6399 79.8708 16.6399C79.5002 16.6399 79.3149 16.5686 79.3149 16.426Z" fill="#1B2127"/>
<path d="M91.9786 13.8602C91.9216 14.2024 91.8931 15.0719 91.8931 16.4688C91.8931 17.3241 91.9358 20.1892 92.0213 25.0643L92.0641 27.5445C92.0641 29.4546 92.4917 31.3505 93.347 33.2321C94.2023 35.1137 96.2122 36.0545 99.3767 36.0545C101.03 36.0545 102.413 35.5983 103.525 34.686C104.637 33.7737 105.463 32.7189 106.005 31.5215C106.547 30.3242 106.817 29.3264 106.817 28.5281C106.817 26.618 106.803 24.152 106.775 21.13C106.775 18.1081 106.76 15.6421 106.732 13.732C106.732 12.9337 106.547 12.0072 106.176 10.9523C105.805 9.86899 105.121 8.89968 104.123 8.04442C103.154 7.16064 101.814 6.71875 100.104 6.71875C98.051 6.71875 96.4545 7.13213 95.3141 7.95889C94.2023 8.75714 93.4468 9.61241 93.0477 10.5247C92.6485 11.437 92.2922 12.5488 91.9786 13.8602ZM102.114 14.8438C102.142 14.9293 102.156 15.6848 102.156 17.1103C102.156 19.1914 102.128 21.4864 102.071 23.9952C102.042 26.4755 101.985 28.0434 101.9 28.6992C101.843 29.2693 101.543 29.7682 101.002 30.1959C100.46 30.595 99.8898 30.7946 99.2911 30.7946C99.0916 30.7946 98.949 30.7803 98.8635 30.7518C98.0367 30.5807 97.438 30.2814 97.0674 29.8538C96.7253 29.4261 96.5543 28.7847 96.5543 27.9294V20.5741C96.5543 17.039 96.5828 15.0861 96.6398 14.7155C96.7253 13.9458 96.9676 13.2045 97.3668 12.4918C97.5663 12.0927 97.8372 11.7933 98.1793 11.5938C98.5499 11.3657 98.949 11.2517 99.3767 11.2517C100.061 11.2517 100.66 11.551 101.173 12.1497C101.486 12.5203 101.7 12.9194 101.814 13.3471C101.957 13.7747 102.056 14.2736 102.114 14.8438Z" fill="#1B2127"/>
<path d="M108.75 7.78783C108.578 7.93038 108.493 8.4863 108.493 9.45561L108.536 11.4655C108.536 11.551 108.578 11.6508 108.664 11.7648C108.721 11.8789 108.778 11.9359 108.835 11.9359C109.405 11.9644 110.232 11.9644 111.315 11.9359C112.427 11.9074 113.069 11.8931 113.24 11.8931C113.411 11.8931 113.511 12.0927 113.539 12.4918C113.568 12.8624 113.582 13.119 113.582 13.2616C113.582 15.0576 113.596 18.55 113.625 23.7386C113.653 28.9272 113.696 32.3483 113.753 34.0018C113.753 34.629 114.052 34.9426 114.651 34.9426C115.962 34.9426 116.946 34.9284 117.602 34.8999C117.915 34.8999 118.072 34.7431 118.072 34.4295V12.4063C118.072 12.1782 118.214 12.0642 118.5 12.0642L119.911 12.0214C120.738 11.9644 121.365 11.9501 121.792 11.9787C122.619 11.9787 123.09 11.608 123.204 10.8668C123.232 10.6957 123.246 10.4249 123.246 10.0543C123.246 9.91175 123.232 9.72645 123.204 9.49837C123.204 9.2703 123.218 8.99947 123.246 8.68587V8.51481C123.246 8.22972 123.175 8.03016 123.033 7.91613C122.918 7.80209 122.69 7.73082 122.348 7.70231C122.234 7.70231 121.864 7.70231 121.236 7.70231C120.638 7.6738 119.583 7.65955 118.072 7.65955C112.313 7.65955 109.206 7.70231 108.75 7.78783Z" fill="#1B2127"/>
<path d="M132.323 22.5412C132.18 22.9403 132.009 23.3537 131.81 23.7814C131.61 24.209 131.468 24.4228 131.382 24.4228C131.297 24.4228 131.254 24.209 131.254 23.7814L131.297 8.51481V8.47205C131.297 8.32951 131.254 8.17271 131.168 8.00165C131.083 7.8306 130.997 7.73082 130.912 7.70231C130.284 7.64529 129.786 7.61678 129.415 7.61678L128.389 7.65955C127.99 7.71656 127.704 7.8306 127.533 8.00165C127.362 8.1442 127.248 8.41503 127.191 8.81416C127.191 8.89968 127.177 9.21328 127.148 9.75495C127.148 10.2681 127.148 11.2232 127.148 12.6201C127.148 16.6399 127.163 20.7166 127.191 24.8504C127.22 28.9557 127.248 31.9634 127.277 33.8735C127.277 34.3582 127.505 34.6575 127.961 34.7716C128.645 34.8856 129.358 34.9426 130.099 34.9426C130.612 34.9426 130.954 34.8999 131.125 34.8143C131.354 34.7003 132.266 32.7759 133.862 29.0413C135.459 25.2781 136.699 22.3131 137.583 20.1465C137.839 19.4908 137.996 19.1629 138.053 19.1629C138.11 19.1629 138.153 19.2199 138.181 19.334C138.21 19.4195 138.224 19.4908 138.224 19.5478L138.31 33.1038C138.338 33.8735 138.381 34.3439 138.438 34.515C138.495 34.686 138.737 34.7858 139.165 34.8143L140.747 34.8571C141.859 34.8571 142.415 34.7573 142.415 34.5577V8.301C142.415 8.04442 142.358 7.87336 142.244 7.78783C142.158 7.70231 141.987 7.6738 141.731 7.70231C141.531 7.73082 141.303 7.74507 141.047 7.74507C140.819 7.71656 140.605 7.70231 140.405 7.70231H139.507C138.566 7.70231 138.082 7.77358 138.053 7.91613C137.483 9.39859 136.457 12.0357 134.974 15.8274C133.52 19.5905 132.636 21.8285 132.323 22.5412Z" fill="#1B2127"/>
<path d="M151.436 16.426C151.379 15.3427 151.351 12.6486 151.351 8.34376V8.21547C151.351 8.01591 151.308 7.88762 151.223 7.8306C151.137 7.74507 150.98 7.70231 150.752 7.70231C149.441 7.75933 148.357 7.78783 147.502 7.78783C147.246 7.78783 147.075 7.84485 146.989 7.95889C146.932 8.07292 146.904 8.27249 146.904 8.55758V34.4722C146.904 34.7003 146.946 34.8428 147.032 34.8999C147.203 34.9854 147.659 35.0281 148.4 35.0281C149.398 35.0281 150.154 34.9996 150.667 34.9426C151.094 34.8856 151.308 34.6718 151.308 34.3012L151.436 21.7715C151.436 21.0017 151.736 20.6169 152.334 20.6169C152.591 20.6169 152.919 20.6739 153.318 20.7879C153.917 20.9305 154.444 21.2441 154.9 21.7287C155.356 22.1849 155.627 22.755 155.713 23.4393C155.77 24.2375 155.798 26.4755 155.798 30.1531C155.827 31.0369 155.841 32.0632 155.841 33.2321C155.87 34.0018 155.898 34.4722 155.927 34.6433C155.984 34.8143 156.055 34.9141 156.14 34.9426C156.254 34.9426 156.924 34.9426 158.15 34.9426C159.034 34.9426 159.576 34.9284 159.775 34.8999C159.832 34.8999 159.889 34.8571 159.946 34.7716C160.003 34.6575 160.032 34.5577 160.032 34.4722C160.06 34.2441 160.075 32.6762 160.075 29.7682V24.4228C160.16 23.1114 159.961 21.9995 159.476 21.0873C158.906 20.0894 158.222 19.3482 157.423 18.8636C157.252 18.7495 157.167 18.6497 157.167 18.5642C157.167 18.4502 157.252 18.3504 157.423 18.2649C158.136 17.8658 158.678 17.2671 159.048 16.4688C159.419 15.6421 159.633 14.9008 159.69 14.2451C159.718 13.846 159.733 12.6058 159.733 10.5247V9.02798C159.704 8.48631 159.633 8.17271 159.519 8.08718C159.433 7.97314 159.12 7.91613 158.578 7.91613H156.696C155.927 7.91613 155.528 7.93038 155.499 7.95889C155.47 7.9874 155.456 8.35801 155.456 9.07074C155.485 9.78346 155.499 10.3964 155.499 10.9096C155.528 11.4512 155.542 12.0784 155.542 12.7912C155.542 13.6749 155.342 14.4162 154.943 15.0149C154.544 15.585 154.059 15.9984 153.489 16.255C152.947 16.5116 152.449 16.6399 151.992 16.6399C151.622 16.6399 151.436 16.5686 151.436 16.426Z" fill="#1B2127"/>
<path d="M21.9297 0.212891C23.0393 1.84957 24.5411 2.7944 26.5373 2.7944C28.514 2.78511 30.0085 1.8475 31.1078 0.220119C31.0614 1.87229 30.3853 3.17853 28.996 4.04901C27.3951 5.0527 25.7291 5.07026 24.1107 4.09135C22.677 3.2188 21.9865 1.88984 21.9297 0.212891Z" fill="#E4E753"/>
<path d="M92.0205 11.8691C93.7973 14.49 96.2022 16.003 99.3989 16.003C102.564 15.9881 104.957 14.4867 106.718 11.8807C106.643 14.5264 105.561 16.6181 103.336 18.012C100.772 19.6193 98.1047 19.6474 95.513 18.0798C93.2172 16.6826 92.1114 14.5545 92.0205 11.8691Z" fill="#E4E753"/>
</svg>
