<svg width="50" height="49" viewBox="0 0 50 49" fill="none" xmlns="http://www.w3.org/2000/svg">
<path d="M25.3606 49H24.6471C24.2843 48.7827 23.9367 48.5416 23.6066 48.2784C20.7332 45.6642 18.112 42.7921 15.7769 39.699C13.2247 36.317 11.0014 32.7433 9.53967 28.7517C8.32415 25.4324 7.676 22.0371 8.16259 18.4975C8.59533 15.3415 9.80892 12.4969 11.9034 10.0891C15.9423 5.43669 21.0967 3.42002 27.2897 4.14351C30.44 4.49668 33.4097 5.77841 35.8117 7.82173C40.6988 11.9443 42.6336 17.2309 41.82 23.4917C41.3623 27.0199 40.0641 30.288 38.3581 33.3946C35.2636 38.9907 31.2016 43.8387 26.5088 48.1949C26.1446 48.4882 25.7611 48.7572 25.3606 49ZM29.7264 20.7572C29.7264 18.1709 27.5666 16.0232 24.9875 16.0422C24.0404 16.0343 23.1122 16.3044 22.3209 16.8183C21.5295 17.3321 20.9107 18.0665 20.5429 18.9283C20.175 19.79 20.0748 20.7403 20.255 21.6583C20.4351 22.5764 20.8875 23.421 21.5546 24.0848C22.2218 24.7485 23.0736 25.2016 24.0021 25.3865C24.9305 25.5714 25.8937 25.4798 26.7693 25.1233C27.6449 24.7667 28.3935 24.1614 28.92 23.384C29.4465 22.6067 29.7272 21.6924 29.7264 20.7572Z" fill="#1B2127"/>
<circle cx="25" cy="23" r="7" fill="#E4E753"/>
<path d="M9.70145 18.5147C9.12218 19.0217 8.2113 18.7115 8.06187 17.9564L5.7515 6.28109C5.60206 5.52594 6.32615 4.8922 7.05485 5.14036L18.3211 8.97715C19.0498 9.22532 19.2366 10.1693 18.6573 10.6763L9.70145 18.5147Z" fill="#E4E753"/>
<path d="M40.2517 18.5147C40.8309 19.0217 41.7418 18.7115 41.8913 17.9564L44.2016 6.28109C44.3511 5.52594 43.627 4.8922 42.8983 5.14036L31.632 8.97715C30.9033 9.22532 30.7165 10.1693 31.2958 10.6763L40.2517 18.5147Z" fill="#E4E753"/>
</svg>
