<svg width="86" height="77" viewBox="0 0 86 77" fill="none" xmlns="http://www.w3.org/2000/svg">
<path d="M81.1523 11.4858C71.9034 9.57702 62.6545 7.58148 53.4056 5.62065C45.649 3.97216 37.8751 2.34102 30.1012 0.70988C27.4289 0.154599 25.3119 1.64692 24.9301 4.33656C24.7913 5.32565 24.6178 6.29739 24.479 7.28649C24.3401 8.22353 24.2013 9.17791 24.0625 10.1497C44.07 14.3837 63.9907 18.6003 83.9634 22.817C84.0676 22.2097 84.137 21.7064 84.2237 21.1859C84.5014 19.6241 84.779 18.0451 85.0393 16.4833C85.0393 15.928 85.0393 15.3728 85.0393 14.8348C84.3972 12.9608 83.1479 11.8849 81.1523 11.4858Z" fill="#1B2127"/>
<path d="M5.39062 35.0332L17.1036 31.7883C13.1819 32.8641 9.27759 33.94 5.39062 35.0332Z" fill="black"/>
<path d="M45.7846 23.8061C45.2988 23.9276 44.7435 23.9623 44.2576 23.8582C36.8134 22.2965 29.3691 20.7174 21.8208 19.1209C21.7514 19.3986 21.682 19.5895 21.6299 19.815C20.9011 23.2682 20.1376 26.704 19.4608 30.1745C19.322 30.9033 19.027 31.233 18.4023 31.4412L54.4956 21.4462C51.5804 22.1923 48.6825 23.0426 45.7846 23.8061Z" fill="#1B2127"/>
<path d="M59.8229 23.8235C59.1114 21.8973 57.1853 20.7694 55.1897 21.2726C54.9468 21.3247 54.7212 21.3941 54.4783 21.4462L18.4024 31.4239C18.333 31.4412 18.2809 31.4586 18.2115 31.4759C17.8297 31.58 17.4653 31.6842 17.0836 31.7883L5.37063 35.0332C4.78064 35.1894 4.20801 35.3629 3.61802 35.5191C0.928377 36.2652 -0.268947 38.3649 0.459859 41.0372C3.37508 51.5702 6.29031 62.1205 9.22289 72.6535C10.0211 75.5167 12.0687 76.6619 14.8972 75.8637C19.565 74.5623 24.2502 73.2782 28.918 71.9767C41.1342 68.593 53.3504 65.2093 65.5492 61.8082C66.278 61.5999 67.0242 61.2876 67.5968 60.8017C69.1065 59.5523 69.3321 57.9038 68.7768 56.0645C68.6206 55.5439 68.4644 55.0233 68.3256 54.5027C68.2909 54.3639 68.2562 54.2425 68.2215 54.1036L60.6037 26.6866C60.4302 25.7149 60.1699 24.7605 59.8229 23.8235ZM3.65273 39.8572C3.46185 39.111 3.99978 38.9028 4.55506 38.7466C7.36617 37.9658 10.1773 37.1849 12.9884 36.4041C27.0613 32.4997 41.1168 28.6128 55.1897 24.7084C56.3524 24.3787 56.5606 24.5002 56.8729 25.6802C57.3935 27.5543 57.9141 29.4457 58.4694 31.4065C40.7698 36.3173 23.1223 41.2107 5.37063 46.1388C4.79799 43.9871 4.20801 41.9222 3.65273 39.8572ZM65.5492 56.8974C65.8789 58.0774 65.7748 58.2682 64.5948 58.5979C47.7976 63.2658 30.983 67.9336 14.1857 72.6014C12.9884 72.9311 12.8149 72.827 12.4852 71.647C10.854 65.7992 9.24024 59.9688 7.6091 54.121C7.53969 53.878 7.48763 53.6351 7.40087 53.3054C25.0831 48.3947 42.748 43.5012 60.4823 38.5731C61.159 41.0198 61.8358 43.3798 62.4778 45.7397C63.5016 49.4532 64.5254 53.1839 65.5492 56.8974Z" fill="#E4E753"/>
<path d="M61.5603 27.5542C61.0397 27.4501 60.7621 27.2419 60.6406 26.6866L68.2584 54.1036C67.9807 53.1145 67.7205 52.0907 67.4255 51.0322C69.3169 51.4313 71.0695 51.7957 72.8047 52.1601C75.5117 52.7328 77.5073 51.466 78.0973 48.7764C78.9302 44.8894 79.7458 41.0198 80.5787 37.1328C80.9604 35.3629 81.3248 33.5929 81.7066 31.7883C81.3075 31.7015 80.9778 31.6147 80.6654 31.5453C74.2971 30.2265 67.9287 28.873 61.5603 27.5542ZM76.5182 36.5602C76.1191 38.5905 75.7026 40.6033 75.2341 42.6162C75.0085 43.588 74.193 44.0738 73.2212 43.883C71.243 43.5012 69.2822 43.0848 67.3213 42.6336C66.3496 42.408 65.9158 41.7833 65.9331 40.4819C66.3323 38.7119 66.7661 36.5429 67.2866 34.4085C67.4775 33.6276 68.1369 33.1938 68.9351 33.3326C71.1042 33.7317 73.2559 34.1656 75.3903 34.6861C76.2579 34.9117 76.6917 35.6926 76.5182 36.5602Z" fill="#1B2127"/>
<path d="M21.87 58.7714C21.575 57.817 20.7421 57.3832 19.7703 57.6435C17.8095 58.1641 15.8313 58.702 13.8878 59.2746C13.107 59.5002 12.6211 60.0381 12.6211 60.8711C12.6384 61.0446 12.6211 61.2007 12.6558 61.3222C13.2284 63.3872 13.7664 65.4695 14.3911 67.5171C14.6687 68.4021 15.4322 68.7665 16.3866 68.5235C18.3821 68.0203 20.3777 67.465 22.3559 66.875C23.345 66.58 23.7961 65.7992 23.5532 64.8274C23.05 62.7972 22.4773 60.7669 21.87 58.7714Z" fill="#C5C900"/>
</svg>
