<svg width="56" height="78" viewBox="0 0 56 78" fill="none" xmlns="http://www.w3.org/2000/svg">
<path d="M55.2674 34.8439C52.4674 28.4439 49.6674 21.9439 46.7674 15.5439C46.5674 15.0439 46.1674 14.4439 45.7674 14.1439C44.9674 13.5439 44.0674 13.7439 43.2674 14.0439C39.4674 15.7439 35.5674 17.4439 31.6674 19.1439C30.2674 19.7439 28.9674 20.3439 27.5674 20.9439C26.0674 21.6439 25.6674 22.7439 26.2674 24.2439C28.1674 28.5439 30.0674 32.7439 31.8674 37.0439C31.9674 37.3439 32.2674 37.6439 32.5674 37.7439C33.4674 38.3439 34.4674 38.8439 35.3674 39.4439C37.3674 40.7439 38.0674 42.7439 37.5674 45.0439C37.5674 45.1439 37.5674 45.3439 37.4674 45.5439C37.7674 45.4439 38.0674 45.3439 38.2674 45.2439C43.4674 43.0439 48.6674 40.7439 53.8674 38.5439C55.6674 37.7439 56.0674 36.6439 55.2674 34.8439Z" fill="white"/>
<path d="M12.9691 14.8439C11.4691 12.2439 9.86911 9.7439 8.26911 7.2439C7.16911 5.4439 5.96911 3.6439 4.76911 1.7439C4.66911 1.7439 4.56911 1.8439 4.46911 1.8439C4.36911 1.8439 4.26912 1.9439 4.16912 2.0439C0.969115 4.4439 -0.530885 7.7439 0.169115 11.8439C0.569115 14.3439 1.36911 16.7439 1.86911 19.1439C2.06911 20.0439 2.46911 20.8439 2.96911 21.6439C3.46911 22.4439 4.16911 22.9439 4.96911 23.4439C5.76911 23.8439 6.56911 24.1439 7.46911 24.1439C8.36911 24.2439 9.26911 24.0439 10.0691 23.7439C13.5691 22.2439 14.8691 18.0439 12.9691 14.8439Z" fill="#1B2127"/>
<path d="M28.5672 50.7439C28.4672 49.6439 28.4672 48.5439 28.3672 47.4439C28.1672 47.3439 27.8672 47.1439 27.6672 46.9439C25.0672 45.4439 22.4672 43.8439 19.7672 42.3439C18.2672 41.5439 17.5672 40.3439 17.3672 38.6439C17.1672 36.1439 16.7672 33.5439 16.4672 31.0439C16.4672 30.7439 16.4672 30.5439 16.3672 30.2439H16.4672C17.1672 32.2439 17.9672 34.2439 18.6672 36.2439C18.9672 37.0439 19.2672 37.9439 19.5672 38.7439C19.8672 39.4439 20.2672 39.9439 20.8672 40.3439C24.0672 42.2439 27.3672 44.1439 30.5672 46.0439C31.7672 46.7439 32.9672 46.6439 33.8672 45.8439C34.0672 45.6439 34.2672 45.4439 34.4672 45.1439C35.2672 43.7439 34.7672 42.1439 33.2672 41.2439C32.1672 40.5439 30.9672 39.9439 29.8672 39.2439C28.2672 38.2439 26.5672 37.3439 24.9672 36.3439C24.5672 36.0439 24.2672 35.7439 24.0672 35.3439C23.2672 33.2439 22.4672 31.0439 21.6672 28.9439C21.5672 28.7439 21.5672 28.5439 21.5672 28.2439C21.9672 28.7439 22.2672 29.2439 22.6672 29.8439C23.1672 30.6439 23.7672 31.3439 24.1672 32.1439C24.9672 33.6439 26.2672 34.4439 27.7672 35.2439C27.9672 35.3439 28.0672 35.4439 28.2672 35.5439C28.1672 35.2439 28.0672 34.9439 27.9672 34.7439C26.7672 32.0439 25.6672 29.3439 24.4672 26.7439C23.7672 25.2439 22.9672 22.0439 22.7672 22.0439C22.2672 20.3439 21.8672 18.6439 21.4672 16.9439C22.5672 16.4439 23.7672 16.0439 24.7672 15.5439C28.1672 13.7439 29.8672 9.94387 29.0672 6.24387C29.0672 6.14387 29.0672 5.94387 29.0672 5.84387L28.3672 4.24387C27.4672 3.34387 26.5672 3.24387 25.4672 3.84387C24.7672 4.14387 24.1672 4.44387 23.4672 4.74387L20.1672 6.14387C19.0672 3.74387 17.3672 2.04387 15.0672 0.943867C12.7672 -0.156133 10.3672 -0.256133 7.86719 0.443867C7.86719 0.543867 7.86719 0.643868 7.96719 0.643868C9.66719 3.24387 11.3672 5.94387 13.0672 8.54387C14.1672 10.3439 15.3672 11.9439 16.2672 13.8439C18.3672 18.0439 17.1672 22.8439 14.0672 25.7439C13.7672 25.9439 13.4672 26.2439 13.1672 26.4439C11.9672 27.7439 11.6672 29.4439 12.5672 31.3439C14.1672 34.9439 15.7672 38.5439 17.3672 42.1439C18.5672 44.7439 19.7672 47.4439 20.8672 50.0439C21.0672 50.4439 21.1672 50.9439 21.1672 51.3439C21.2672 52.7439 21.3672 54.0439 21.3672 55.4439C21.3672 56.1439 21.4672 56.8439 21.4672 57.5439C21.4672 57.9439 21.3672 58.5439 21.1672 58.9439C20.6672 60.0439 20.1672 61.0439 19.6672 62.1439C18.0672 65.5439 16.5672 68.8439 14.9672 72.2439C14.4672 73.2439 14.2672 74.2439 14.6672 75.3439C15.1672 76.6439 16.1672 77.4439 17.5672 77.5439C18.9672 77.6439 20.0672 77.1439 20.8672 75.8439C21.3672 74.9439 21.7672 74.0439 22.1672 73.0439C24.0672 69.0439 25.9672 64.9439 27.7672 60.9439C28.1672 60.1439 28.3672 59.2439 28.2672 58.3439V58.2439C28.2672 57.4439 28.6672 52.5439 28.5672 50.7439Z" fill="#1B2127"/>
<path d="M40.5687 58.5439C40.4687 57.3439 40.2688 56.1439 39.8688 55.0439C39.1688 52.6439 38.3687 50.3439 37.5687 47.9439C37.4687 47.6439 37.3687 47.4439 37.2687 47.0439C36.5687 47.3439 35.9688 47.6439 35.4688 48.0439C34.0688 48.9439 32.6687 49.1439 31.0687 48.7439C30.8687 48.7439 30.7688 48.6439 30.4688 48.5439C30.5688 48.8439 30.5688 49.1439 30.6688 49.3439C31.4688 51.5439 32.1687 53.8439 32.9688 56.0439C33.3688 57.3439 33.6687 58.5439 33.7687 59.8439C34.1687 64.3439 34.5687 68.8439 34.9688 73.4439C34.9688 73.9439 35.0688 74.5439 35.1688 75.0439C35.6688 76.7439 37.2687 77.7439 38.9688 77.4439C40.6688 77.1439 41.9688 75.8439 41.8688 74.0439C41.8688 72.2439 41.6688 70.4439 41.4688 68.6439C41.1687 65.3439 40.9687 61.9439 40.5687 58.5439Z" fill="#1B2127"/>
</svg>
