<svg width="156" height="66" viewBox="0 0 156 66" fill="none" xmlns="http://www.w3.org/2000/svg">
<path d="M153.26 48.9946C155.692 51.3924 156.015 52.7189 154.297 54.2154C153.617 54.8106 152.529 55.1848 151.61 55.2358C149.247 55.3718 146.866 55.2868 144.281 55.2868C144.128 54.1134 144.043 53.1611 143.89 52.2257C142.852 45.8824 137.223 41.988 130.914 43.3315C125.914 44.3859 122.36 47.362 120.183 51.9536C119.707 52.957 119.418 54.0284 119.01 55.1508C100.541 55.1508 82.2255 55.1508 63.7058 55.1508C63.6038 54.3685 63.4677 53.6712 63.3997 52.957C62.7365 46.1885 57.0564 41.92 50.3901 43.3145C45.6794 44.3009 42.1931 46.9878 40.0333 51.3074C39.4211 52.5148 38.962 53.8073 38.3327 55.2868C35.3056 55.2868 32.3126 55.3718 29.3025 55.2698C26.7176 55.1848 25.6972 53.9603 25.8503 51.4264C25.9183 50.321 26.1394 49.2156 26.3605 47.6681C24.8299 47.6171 23.5034 47.583 22.1769 47.498C20.0342 47.379 18.9628 46.5797 18.9628 45.1342C18.9628 43.5356 20.2212 42.3282 22.262 42.2772C25.6462 42.1751 29.0474 42.2431 32.4486 42.2431C33.3329 42.2431 34.2173 42.2941 35.0846 42.2261C37.2954 42.0221 38.6729 40.7126 38.4348 38.995C38.1627 36.9542 36.5811 36.9032 35.0165 36.9032C27.3468 36.9032 19.6771 36.9032 12.0073 36.9032C11.123 36.9032 10.2387 36.9202 9.37136 36.8692C7.97686 36.7672 6.66738 36.1209 6.93948 34.6414C7.12654 33.604 8.0959 32.4306 9.04824 31.9204C9.93255 31.4273 11.242 31.6823 12.3814 31.6823C27.5849 31.6653 42.8053 31.6823 58.0088 31.6653C59.0122 31.6653 60.0325 31.7334 61.0189 31.5973C62.6685 31.3592 63.9779 29.9647 63.8419 28.5872C63.6718 26.8526 62.4814 26.3594 60.9168 26.3765C60.0325 26.3935 59.1652 26.3765 58.2809 26.3765C40.6796 26.3765 23.0783 26.3765 5.49396 26.3765C4.4906 26.3765 3.48725 26.3934 2.48389 26.3424C1.07238 26.2574 0.0350153 25.6282 0.00100307 24.0806C-0.0330091 22.6521 0.800285 21.6318 2.14377 21.3427C3.3512 21.0706 4.64366 21.1216 5.88511 21.1216C28.5032 21.1046 51.1383 21.1216 73.7564 21.1046C75.0149 21.1046 76.3244 21.2066 77.4978 20.8835C78.9093 20.4923 79.8956 19.3699 79.6916 17.7884C79.5045 16.2748 78.3141 15.8327 76.9196 15.8327C75.9162 15.8327 74.9129 15.8157 73.9095 15.8157C56.6823 15.8157 39.4721 15.8157 22.245 15.8157C21.3606 15.8157 20.4763 15.8327 19.609 15.7986C18.2145 15.7306 17.0411 15.1014 16.9561 13.6559C16.871 12.1423 17.7724 11.02 19.3029 10.7138C20.2723 10.5098 21.3096 10.5948 22.313 10.5948C31.9895 10.5948 41.6659 10.5948 51.3424 10.5948C52.2267 10.5948 53.111 10.6458 53.9783 10.4928C55.6789 10.1696 56.8354 8.80914 56.6823 7.38063C56.4782 5.612 55.2028 5.22086 53.6892 5.22086C48.5364 5.20386 43.3835 5.22087 38.2307 5.20386C37.2273 5.20386 36.224 5.22085 35.2206 5.16984C33.8261 5.08481 32.6527 4.47259 32.6697 2.95904C32.6867 1.47951 33.571 0.37413 35.1356 0.102032C35.8669 -0.0340163 36.6321 0.0170019 37.3974 0.0170019C63.4167 0.0170019 89.4361 0.0340122 115.455 0C122.428 0 127.496 2.70397 130.2 9.43838C131.883 13.6219 134.009 17.6183 135.829 21.7508C136.645 23.6044 137.852 24.7949 139.757 25.5091C143.396 26.8696 147.019 28.3321 150.624 29.7947C154.365 31.3252 155.216 32.6517 154.79 36.7332C154.416 40.3555 153.804 43.9438 153.311 47.532C153.209 48.0082 153.26 48.5014 153.26 48.9946ZM131.679 23.9616C131.849 23.2473 132.121 22.8222 132.002 22.5671C130.421 18.8938 128.805 15.2375 127.139 11.5981C126.543 10.3057 125.387 9.93156 124.009 9.94857C119.996 9.98258 115.966 9.99958 111.952 9.94857C109.945 9.91455 108.959 10.8499 108.704 12.7886C108.313 15.9007 107.837 18.9958 107.497 22.1079C107.429 22.6521 107.837 23.2473 108.075 23.9786C115.915 23.9616 123.669 23.9616 131.679 23.9616Z" fill="#1B2127"/>
<path d="M49.7751 65.1333C44.7413 65.1843 41.0679 61.6811 41.0509 56.8173C41.0169 50.9502 46.4929 45.5763 52.445 45.5933C57.1897 45.6103 60.812 49.1136 60.9651 53.7902C61.1352 59.6403 55.7782 65.0653 49.7751 65.1333ZM55.098 54.8276C55.047 52.9909 53.4654 51.5624 51.6117 51.6985C49.537 51.8345 47.5473 53.9603 47.6153 55.95C47.6833 57.8377 49.1459 59.1302 51.1186 59.0281C53.2953 58.9091 55.166 56.9193 55.098 54.8276Z" fill="#1B2127"/>
<path d="M141.373 54.1645C141.304 60.9159 134.638 66.2898 128.023 64.9293C123.074 63.9089 120.506 58.8751 122.139 53.4842C123.584 48.7225 128.703 45.2532 133.669 45.6444C138.294 46.0355 141.424 49.4878 141.373 54.1645ZM132.393 51.6475C130.319 51.5965 128.312 53.5012 128.227 55.661C128.142 57.7187 129.315 59.0112 131.322 59.0282C133.448 59.0622 135.488 57.1915 135.607 55.0998C135.709 53.3482 134.179 51.6986 132.393 51.6475Z" fill="#1B2127"/>
<path d="M58.784 21.1111C63.1086 21.1098 67.4328 21.1078 71.7564 21.1046C71.9994 21.1046 72.2443 21.1084 72.4898 21.1122C73.5155 21.1281 74.5509 21.1442 75.4978 20.8835C76.9093 20.4923 77.8956 19.3699 77.6916 17.7884C77.5045 16.2748 76.3141 15.8327 74.9196 15.8327C74.4179 15.8327 73.9162 15.8284 73.4145 15.8242C72.9128 15.8199 72.4112 15.8157 71.9095 15.8157H57.7361L57.0198 12.1958C56.8703 11.4407 57.5944 10.8069 58.3231 11.0551L66.5457 13.8554C68.9683 12.4891 71.7658 11.7095 74.7453 11.7095C77.7927 11.7095 80.6496 12.525 83.1098 13.9496L91.6102 11.0547C92.3389 10.8065 93.063 11.4403 92.9135 12.1954L90.7979 22.8865C90.7706 23.0248 90.7177 23.1481 90.646 23.2542C91.1752 24.8826 91.4613 26.6206 91.4613 28.4255C91.4613 37.6574 83.9773 45.1414 74.7453 45.1414C66.6205 45.1414 59.8495 39.3448 58.3424 31.6616C58.5692 31.6486 58.7949 31.6282 59.0189 31.5973C60.6685 31.3592 61.9779 29.9647 61.8419 28.5872C61.6718 26.8526 60.4814 26.3594 58.9168 26.3765C58.661 26.3814 58.4066 26.3834 58.1528 26.3839C58.3133 25.0655 58.6273 23.7945 59.0765 22.5892L58.784 21.1111Z" fill="#E4E753"/>
</svg>
