<svg width="44" height="49" viewBox="0 0 44 49" fill="none" xmlns="http://www.w3.org/2000/svg">
<path d="M8.12395 6.79486C11.2818 10.8022 15.123 14.22 19.4704 16.8905C18.3602 19.1382 17.7266 21.7964 17.557 24.8583C17.1975 31.2629 18.9979 36.6994 24.7196 40.236C28.5993 42.6299 33.3987 42.1998 36.515 39.3708C39.0879 37.0336 39.5488 33.6466 37.6687 30.7937C35.8969 28.1042 32.1657 26.985 29.2501 28.3401C27.061 29.3575 26.1709 31.1964 26.4816 33.5183C26.7923 35.8401 28.1213 37.6241 30.5045 37.6936C31.8687 37.7327 33.8484 37.0216 34.4795 35.9927C35.0841 35.0077 34.3797 33.162 34.0909 31.7244C33.9826 31.1849 33.4268 30.7355 33.0751 30.2451L33.652 29.643C34.3368 30.1268 35.2038 30.4765 35.6787 31.1149C38.0519 34.3088 36.3645 38.7236 32.4629 39.5872C29.4933 40.2458 27.0838 39.1897 25.2355 36.8708C23.4032 34.5717 23.2138 31.3239 24.7732 28.706C26.6108 25.6181 29.3422 24.2328 32.9674 24.5502C36.9864 24.8878 40.0255 26.6724 41.6469 30.4315C45.0491 38.3191 38.2348 47.0215 28.9962 46.656C20.4571 46.3137 12.9734 40.648 10.6063 31.4311C9.00766 25.2121 8.42399 18.6428 8.14779 12.1985C8.07025 10.3936 8.0623 8.59244 8.12395 6.79486Z" fill="#E4E753"/>
<rect width="27.1422" height="17.5956" transform="matrix(-1 0 0 1 27.8389 0.835938)" fill="#1B2127"/>
</svg>
