<svg width="33" height="29" viewBox="0 0 33 29" fill="none" xmlns="http://www.w3.org/2000/svg">
<path fill-rule="evenodd" clip-rule="evenodd" d="M31.3532 20.9362C29.333 18.8675 26.513 17.5832 23.3931 17.5832C23.207 17.5832 23.0219 17.5878 22.8379 17.5968C22.9936 15.7596 23.237 13.9598 23.566 12.2139C24.5933 6.53816 26.831 2.69435 29.9902 0.25408C30.7176 -0.308551 31.3364 0.234633 31.5803 1.58422C31.9716 3.78819 32.2386 6.02716 32.3775 8.27068C32.6591 12.6424 32.4266 16.8115 31.4176 20.6902C31.3962 20.7723 31.3747 20.8543 31.3532 20.9362ZM12.2679 28.6647C10.9517 27.4188 9.65565 26.0456 8.39945 24.4841C5.35098 20.6927 2.85809 16.3999 0.699633 11.8471C-0.0156822 10.344 0.106464 9.67098 1.03894 9.83107C3.4431 10.2366 6.00634 11.5014 8.74755 13.8681C10.9777 15.7907 13.0606 18.2996 15.1002 20.9461C15.1484 21.0086 15.1964 21.0715 15.244 21.1345C13.4065 23.1106 12.2792 25.756 12.2679 28.6647Z" fill="#E4E753"/>
</svg>
